<svg width="96" height="96" viewBox="0 0 96 96" fill="none" xmlns="http://www.w3.org/2000/svg">
  <rect width="96" height="96" rx="28" fill="#1F1F16"/>
  <rect x="8" y="8" width="80" height="80" rx="24" fill="url(#paint0_linear)"/>
  <path d="M29 48C29 38.8 35 33 44.5 33C48.9 33 52.3 34.2 54.9 36.8L49.5 42C48.1 40.6 46.6 40 44.9 40C40.8 40 37.8 43 37.8 48C37.8 53 40.8 56 44.9 56C46.6 56 48.1 55.4 49.5 54L54.9 59.2C52.3 61.8 48.9 63 44.5 63C35 63 29 57.2 29 48Z" fill="#FFFDF2"/>
  <path d="M60 63V33H68.6V63H60Z" fill="#FFF0A6"/>
  <defs>
    <linearGradient id="paint0_linear" x1="14" y1="14" x2="82" y2="82" gradientUnits="userSpaceOnUse">
      <stop stop-color="#FFD14A"/>
      <stop offset="1" stop-color="#FF7B46"/>
    </linearGradient>
  </defs>
</svg>
